<?xml version="1.0" encoding="UTF-8" standalone="no"?><!DOCTYPE svg PUBLIC "-//W3C//DTD SVG 1.1//EN" "http://www.w3.org/Graphics/SVG/1.1/DTD/svg11.dtd"><svg width="100%" height="100%" viewBox="0 0 24 24" version="1.1" xmlns="http://www.w3.org/2000/svg" xmlns:xlink="http://www.w3.org/1999/xlink" xml:space="preserve" xmlns:serif="http://www.serif.com/" style="fill-rule:evenodd;clip-rule:evenodd;stroke-linejoin:round;stroke-miterlimit:2;"><g id="EXIT-PERMIT" serif:id="EXIT PERMIT"><path d="M10.828,4.73c0.034,1.391 -0.013,14.461 0.025,14.573c0.054,0.157 0.165,0.125 1.461,0.133c0.202,0.001 2.378,0.015 2.53,-0.011c0.42,-0.073 0.452,-0.438 0.457,-0.492c0.022,-0.248 -0.02,-5.503 0.025,-5.778c0.102,-0.624 0.991,-0.671 1.033,0.122c0.001,0.017 0.016,5.741 -0.007,5.889c-0.08,0.5 -0.537,1.325 -1.629,1.349c-0.012,0 -0.012,0 -3.492,-0.004c-0.025,-0 -0.255,-0 -0.314,0.044c-0.265,0.199 0.276,1.443 -0.555,1.943c-0.47,0.283 -1.221,-0.063 -1.91,-0.286c-2.124,-0.686 -4.322,-1.436 -4.697,-1.564c-0.996,-0.34 -1.258,-0.507 -1.268,-1.596c-0.011,-1.271 0.007,-1.27 -0.007,-15.893c-0,-0.454 -0.1,-1.25 0.591,-1.631c0.286,-0.158 0.311,-0.113 3.343,-0.125c0.683,-0.003 8.268,-0.032 8.541,0.005c0.665,0.089 1.379,0.601 1.39,1.629c0.005,0.453 0.042,3.823 0.018,5.659c-0.001,0.053 0.023,0.385 -0.212,0.586c-0.181,0.154 -0.844,0.267 -0.848,-0.585c-0.006,-1.112 0.027,-5.586 -0.02,-5.771c-0.144,-0.566 -0.673,-0.465 -1.404,-0.461c-0.539,0.003 -5.765,0.033 -6.743,-0.035c-0.35,-0.024 -0.688,-0.068 -0.707,-0.06c-0.02,0.008 -0.019,0.038 -0.029,0.056c-0.019,0.034 -0.061,0.063 -0.059,0.102c0,0.013 0.013,-0.004 0.15,0.062c0.024,0.012 0.04,0.038 0.065,0.047c0.189,0.067 0.214,-0.015 2.396,0.736c1.2,0.413 1.213,0.383 1.425,0.525c0.468,0.314 0.451,0.825 0.451,0.829Z" style="fill:#3a75ab;"/><path d="M9.799,14.119c0.001,0.578 0.007,7.186 0.001,7.227c-0.039,0.31 -0.377,0.076 -0.87,-0.083c-0.652,-0.21 -3.086,-1.063 -4.805,-1.602c-0.495,-0.155 -0.573,-0.213 -0.584,-0.486c-0.019,-0.479 0.018,-12.567 -0.02,-16.013c-0.002,-0.22 -0.054,-0.49 0.365,-0.361c0.166,0.051 0.152,0.085 2.057,0.688c0.279,0.088 0.275,0.1 3.47,1.153c0.448,0.148 0.382,0.299 0.382,0.929c0.001,2.85 0.003,5.699 0.004,8.549Z" style="fill:#fcfefe;"/><path d="M12.601,11.106c0.005,-0.037 -0.004,-0.075 0.001,-0.112c0.078,-0.539 0.678,-0.475 0.795,-0.475c1.376,0.007 4.985,0.001 5.418,0c0.741,-0.001 0.763,0.037 0.816,-0.035c0.095,-0.129 -0.163,-0.286 -0.222,-0.332c-0.019,-0.015 -0.928,-0.889 -1.098,-1.071c-0.573,-0.614 0.101,-1.239 0.542,-0.922c0.106,0.076 0.246,0.177 1.18,1.128c1.227,1.248 1.7,1.562 1.405,2.047c-0.063,0.104 -0.097,0.159 -1.044,1.114c-1.435,1.447 -1.423,1.47 -1.586,1.539c-0.501,0.213 -0.859,-0.304 -0.669,-0.689c0.039,-0.078 0.06,-0.12 0.73,-0.811c0.652,-0.671 0.694,-0.626 0.744,-0.69c0.009,-0.011 0.079,-0.101 0.016,-0.181c-0.052,-0.066 -0.071,-0.034 -0.696,-0.029c-0.31,0.002 -5.606,-0.001 -5.659,-0.003c-0.646,-0.015 -0.631,-0.343 -0.676,-0.479Z" style="fill:#3873a9;"/><path d="M7.813,12.915c-0,-0.628 -0.017,-0.936 0.063,-1.075c0.026,-0.045 0.203,-0.357 0.591,-0.278c0.433,0.089 0.411,0.559 0.392,1.475c-0.016,0.815 -0.71,0.591 -0.745,0.572c-0.341,-0.19 -0.296,-0.544 -0.301,-0.693Z" style="fill:#3770a4;"/></g></svg>