<?xml version="1.0" encoding="UTF-8" standalone="no"?><!DOCTYPE svg PUBLIC "-//W3C//DTD SVG 1.1//EN" "http://www.w3.org/Graphics/SVG/1.1/DTD/svg11.dtd"><svg width="100%" height="100%" viewBox="0 0 24 24" version="1.1" xmlns="http://www.w3.org/2000/svg" xmlns:xlink="http://www.w3.org/1999/xlink" xml:space="preserve" xmlns:serif="http://www.serif.com/" style="fill-rule:evenodd;clip-rule:evenodd;stroke-linejoin:round;stroke-miterlimit:2;"><g id="HISTORY"><path d="M5.503,10.351c0.042,-0.149 0.316,-1.129 0.732,-1.785c0.333,-0.525 0.349,-0.512 0.599,-0.866c0.241,-0.342 1.183,-1.251 2.103,-1.71c0.754,-0.376 2.633,-1.196 5.185,-0.403c1.523,0.473 2.642,1.661 2.706,1.727c0.428,0.447 0.924,1.208 0.991,1.335c1.655,3.117 0.534,5.525 0.223,6.238c-0.307,0.704 -0.959,1.519 -1.416,1.97c-0.736,0.726 -1.802,1.282 -2.31,1.466c-2.161,0.782 -3.884,0.225 -4.422,0.051c-0.517,-0.168 -1.245,-0.563 -1.488,-0.727c-1.067,-0.721 -1.56,-1.329 -1.935,-1.891c-1.696,-2.541 -1.109,-4.804 -0.968,-5.406Z" style="fill:#3a74a9;"/><path d="M6.349,10.876c0.079,-0.356 0.302,-1.77 1.765,-3.162c0.172,-0.164 1.092,-1.039 2.628,-1.385c0.614,-0.138 0.666,-0.101 0.713,-0.068c0.069,0.049 0.07,0.255 0.07,0.278c0,0.035 0,0.331 0.033,0.434c0.076,0.238 0.378,0.321 0.548,0.269c0.424,-0.129 0.332,-0.585 0.342,-0.806c0.001,-0.023 0.009,-0.214 0.196,-0.214c0.008,-0 0.567,0.099 0.73,0.144c1.222,0.338 1.972,0.847 2.632,1.461c0.962,0.895 1.487,2.278 1.615,2.935c0.086,0.441 0.149,0.69 -0.015,0.741c-0.078,0.025 -0.078,0.011 -0.316,0.015c-0.924,0.017 -0.576,0.708 -0.55,0.741c0.288,0.363 0.894,0.034 0.968,0.303c0.042,0.153 -0.062,0.533 -0.063,0.535c-0.04,0.179 -0.295,1.331 -0.868,2.114c-0.236,0.323 -1.224,1.854 -3.4,2.396c-0.377,0.094 -0.81,0.195 -0.894,0.085c-0.101,-0.13 0.123,-0.98 -0.473,-1.006c-0.596,-0.026 -0.484,0.74 -0.488,0.841c-0.013,0.332 -0.294,0.206 -0.577,0.153c-0.192,-0.036 -1.275,-0.239 -2.237,-0.964c-0.276,-0.208 -2.057,-1.49 -2.42,-3.942c-0.059,-0.402 0.138,-0.319 0.441,-0.323c0.063,-0.001 0.672,-0.008 0.596,-0.521c-0.087,-0.583 -0.853,-0.332 -0.993,-0.454c-0.084,-0.073 -0.035,-0.223 0.018,-0.6Z" style="fill:#fcfefe;"/><path d="M17.269,5.753c0.001,-0.037 0.037,-0.02 0.038,-0.058c0,-0.008 0.001,-0.051 -0.033,-0.096c-0.013,-0.017 -0.042,-0.011 -0.059,-0.023c-0.023,-0.017 -0.034,-0.047 -0.058,-0.063c-0.096,-0.065 -0.104,-0.05 -0.2,-0.114c-0.403,-0.269 -0.399,-0.273 -0.435,-0.295c-1.795,-1.133 -3.378,-1.368 -4.83,-1.336c-1.397,0.031 -2.906,0.557 -3.787,1.107c-0.598,0.373 -0.6,0.369 -0.713,0.451c-0.749,0.54 -1.486,1.416 -1.6,1.552c-0.675,0.803 -1.176,1.958 -1.295,2.302c-0.82,2.379 -0.444,4.038 -0.124,5.182c0.133,0.476 0.599,1.605 1.154,2.339c1.217,1.607 2.165,2.117 2.58,2.382c1.355,0.864 4.516,1.979 7.892,0.21c1.191,-0.624 2.371,-1.699 3.115,-2.906c0.685,-1.11 0.753,-1.488 0.853,-1.804c0.507,-1.598 0.333,-1.668 0.447,-2.555c0.073,-0.572 0.755,-0.581 0.889,-0.105c0.1,0.353 -0.137,1.816 -0.155,1.896c-0.645,2.903 -2.156,4.28 -2.555,4.701c-0.796,0.842 -1.97,1.52 -2.254,1.662c-1.267,0.636 -1.939,0.72 -2.237,0.786c-0.165,0.037 -1.099,0.246 -2.101,0.206c-2.98,-0.116 -4.742,-1.505 -5.077,-1.744c-0.238,-0.17 -1.55,-1.107 -2.482,-2.676c-1.373,-2.311 -1.498,-4.239 -1.286,-5.987c0.043,-0.353 0.282,-2.327 1.648,-4.132c0.393,-0.52 0.896,-1.274 2.355,-2.286c1.42,-0.986 3.207,-1.403 4.207,-1.492c3.33,-0.297 5.648,1.319 5.826,1.433c0.998,0.642 0.944,0.723 1.043,0.751c0.01,0.003 0.121,-0.057 0.126,-0.068c0.029,-0.068 -0.017,-0.428 -0.015,-0.546c0.001,-0.05 0.005,-0.448 0.408,-0.469c0.6,-0.032 0.497,0.826 0.578,1.733c0.029,0.328 0.227,1.058 -0.469,1.088c-0.017,0.001 -1.365,-0.11 -1.793,-0.16c-0.733,-0.086 -0.675,-1.001 0.104,-0.911c0.127,0.015 0.121,0.035 0.205,0.049c0.03,0.005 0.06,-0.009 0.09,-0.004Z" style="fill:#3a74aa;"/><path d="M13.71,14.211c-0.133,-0.067 -0.152,-0.041 -0.359,-0.249c-0.554,-0.555 -0.561,-0.546 -1.122,-1.095c-0.189,-0.185 -0.194,-0.177 -0.384,-0.359c-0.398,-0.383 -0.326,-0.65 -0.325,-0.899c0.012,-2.888 0.002,-2.887 0.021,-3.068c0.049,-0.465 0.422,-0.466 0.575,-0.421c0.397,0.118 0.325,0.558 0.329,1.588c0.007,1.895 -0.005,1.899 0.043,2.028c0.09,0.243 1.411,1.453 1.616,1.684c0.337,0.381 0.098,0.677 0.018,0.725c-0.207,0.126 -0.312,0.074 -0.412,0.067Z" style="fill:#3973a7;"/></g></svg>