<?xml version="1.0" encoding="UTF-8" standalone="no"?><!DOCTYPE svg PUBLIC "-//W3C//DTD SVG 1.1//EN" "http://www.w3.org/Graphics/SVG/1.1/DTD/svg11.dtd"><svg width="100%" height="100%" viewBox="0 0 24 24" version="1.1" xmlns="http://www.w3.org/2000/svg" xmlns:xlink="http://www.w3.org/1999/xlink" xml:space="preserve" xmlns:serif="http://www.serif.com/" style="fill-rule:evenodd;clip-rule:evenodd;stroke-linejoin:round;stroke-miterlimit:2;"><g id="OVERTIME"><path d="M17.214,15.56c0.214,0.51 0.566,1.318 0.738,2.806c0.103,0.889 0.012,1.048 0.294,1.149c0.123,0.044 1.044,0.229 1.257,1.28c0.188,0.924 -0.451,1.885 -1.605,1.907c-0.05,0.001 -2.972,0.001 -5.892,0.001c-2.916,-0 -5.83,-0.001 -5.883,-0.002c-1.752,-0.042 -2.195,-2.166 -0.941,-2.942c0.325,-0.201 0.682,-0.19 0.756,-0.39c0.112,-0.3 -0.05,-3.618 2.26,-5.841c0.983,-0.946 1.787,-1.132 1.564,-1.713c-0.184,-0.48 -1.417,-0.65 -2.639,-2.691c-0.611,-1.021 -0.889,-2.308 -0.934,-2.518c-0.387,-1.795 -0.068,-1.986 -0.457,-2.137c-0.303,-0.118 -1.104,-0.278 -1.259,-1.401c-0.064,-0.463 0.191,-1.699 1.649,-1.767c0.067,-0.003 11.647,-0.006 11.774,-0.001c0.327,0.012 0.983,0.069 1.425,0.822c0.299,0.509 0.482,1.837 -0.929,2.313c-0.365,0.123 -0.336,0.198 -0.364,0.582c-0.022,0.298 -0.053,1.807 -0.837,3.53c-0.265,0.582 -0.7,1.273 -1.22,1.826c-1.033,1.099 -1.832,1.12 -1.759,1.693c0.064,0.501 0.76,0.511 1.907,1.776c0.655,0.722 0.903,1.309 1.094,1.719Z" style="fill:#3a75ab;"/><path d="M7.956,8.411c0.039,-0.033 0.024,-0.106 0.063,-0.139c0.012,-0.01 0.02,0.013 0.187,-0.058c0.433,-0.183 1.695,-0.521 2.758,-0.227c0.738,0.204 2.315,1.133 4.389,0.689c0.208,-0.045 0.468,-0.146 0.482,-0.141c0.052,0.019 0.063,0.101 0.115,0.12c-1.24,1.899 -1.962,1.599 -2.577,2.532c-0.473,0.719 -0.204,1.661 0.393,2.088c1.05,0.752 1.318,1.025 1.419,1.129c1.531,1.563 1.735,4.172 1.765,4.449c0.009,0.08 0.068,0.502 -0.037,0.595c-0.057,0.05 -0.21,0.053 -0.229,0.053c-0.646,0.009 -0.638,-0.045 -0.717,-0.066c-0.001,-0.017 -0.01,-0.216 -0.01,-0.216c-0.027,-0.135 -0.313,-0.788 -0.406,-0.95c-0.068,-0.118 -0.452,-0.784 -1.102,-1.296c-1.287,-1.015 -1.998,-1.683 -2.631,-1.548c-0.363,0.077 -1.276,0.738 -1.581,0.993c-0.667,0.556 -1.497,1.176 -1.965,2.181c-0.285,0.613 -0.231,0.694 -0.228,0.825c-0.353,0.083 -0.353,0.076 -0.713,0.064c-0.334,-0.011 -0.309,-0.213 -0.243,-0.874c0.013,-0.133 0.196,-1.444 0.532,-2.29c1.124,-2.834 2.941,-2.584 3.235,-4.023c0.19,-0.933 -0.589,-1.533 -0.701,-1.619c-0.639,-0.492 -1.544,-0.972 -2.201,-2.27Z" style="fill:#fbfdfe;"/><path d="M7.551,7.355c-0.031,-0.048 -0.06,-0.03 -0.099,-0.152c-0.278,-0.863 -0.48,-2.339 -0.391,-2.568c0.062,-0.159 0.122,-0.127 1.733,-0.131c0.641,-0.002 7.885,-0.02 8.017,0.012c0.209,0.05 0.176,0.325 0.136,0.744c-0.074,0.764 -0.24,1.694 -0.398,1.931c-0.008,0.011 -0.008,0.01 -0.106,0.13c-0.25,0.031 -0.248,0.035 -0.486,0.117c-0.794,0.274 -1.74,0.299 -2.064,0.272c-1.1,-0.092 -1.84,-0.467 -1.941,-0.51c-0.19,-0.081 -1.249,-0.535 -2.551,-0.37c-1.011,0.128 -1.698,0.464 -1.848,0.525Z" style="fill:#fcfefe;"/><path d="M18.439,21.036c-0.003,0.021 0.095,0.552 -0.662,0.584c-0.579,0.025 -10.387,0.011 -11.29,0.009c-0.095,-0 -0.815,0.095 -0.935,-0.471c-0.013,-0.062 -0.037,-0.532 0.573,-0.57c0.113,-0.007 8.287,0.006 11.289,-0.002c0.21,-0.001 0.847,-0.079 0.996,0.324c0.015,0.04 0.015,0.085 0.03,0.125Z" style="fill:#f5fcfd;"/><path d="M18.453,3.058c-0.082,0.141 -0.101,0.356 -0.675,0.363c-0.864,0.01 -0.864,-0.031 -10.806,-0.004c-0.631,0.002 -1.215,0.076 -1.369,-0.331c-0.079,-0.209 -0.061,-0.701 0.641,-0.71c0.894,-0.011 0.892,0.023 11.17,0.005c0.252,-0 0.925,-0.088 1.048,0.456c0.004,0.017 -0.001,0.016 -0.009,0.22Z" style="fill:#f3fbfc;"/><path d="M8.048,19.425c-0.003,-0.131 -0.057,-0.212 0.228,-0.825c0.468,-1.005 1.298,-1.625 1.965,-2.181c0.305,-0.254 1.218,-0.915 1.581,-0.993c0.632,-0.135 1.344,0.533 2.631,1.548c0.65,0.513 1.034,1.178 1.102,1.296c0.093,0.161 0.379,0.815 0.406,0.95c0,0 0.009,0.199 0.01,0.216c-0.278,0.057 -0.279,0.079 -0.982,0.033c-0.022,-0.045 -0.011,-0.101 -0.033,-0.145c-0.01,-0.021 -0.028,-0.01 -0.162,-0.248c-0.298,-0.528 -0.623,-1.077 -2.338,-2.312c-0.327,-0.235 -0.42,-0.307 -0.661,-0.147c-0.215,0.142 -1.161,0.821 -1.657,1.279c-0.091,0.084 -0.604,0.558 -0.941,1.223c-0.092,0.181 -0.104,0.175 -0.104,0.192c-0,0.061 0.059,0.112 0.058,0.173c-0.123,-0 -0.121,-0.01 -0.241,-0c-0.038,0.003 -0.106,0.009 -0.48,0.003c-0.194,-0.003 -0.19,-0.019 -0.381,-0.061Z" style="fill:#87afd7;"/><path d="M9.15,19.483c0,-0.061 -0.059,-0.112 -0.058,-0.173c0,-0.017 0.012,-0.011 0.104,-0.192c0.337,-0.665 0.851,-1.139 0.941,-1.223c0.495,-0.457 1.442,-1.137 1.657,-1.279c0.242,-0.159 0.334,-0.088 0.661,0.147c1.715,1.235 2.04,1.784 2.338,2.312c0.134,0.238 0.152,0.227 0.162,0.248c0.022,0.045 0.011,0.101 0.033,0.145c-0.212,0.028 -0.252,0.034 -2.674,0.032c-3.116,-0.002 -3.116,-0.016 -3.164,-0.019Z" style="fill:#fbfefe;"/><path d="M7.551,7.355c0.151,-0.06 0.837,-0.397 1.848,-0.525c1.302,-0.165 2.361,0.289 2.551,0.37c0.101,0.043 0.841,0.418 1.941,0.51c0.324,0.027 1.27,0.002 2.064,-0.272c0.238,-0.082 0.235,-0.087 0.486,-0.117c-0.002,0.256 0.013,0.309 -0.29,0.947c-0.015,0.032 -0.02,0.029 -0.199,0.388c-0.052,-0.019 -0.063,-0.101 -0.115,-0.12c-0.014,-0.005 -0.274,0.096 -0.482,0.141c-2.074,0.444 -3.651,-0.484 -4.389,-0.689c-1.063,-0.294 -2.325,0.044 -2.758,0.227c-0.167,0.071 -0.175,0.047 -0.187,0.058c-0.039,0.033 -0.024,0.106 -0.063,0.139c-0.02,-0.035 -0.012,-0.082 -0.031,-0.117c-0.079,-0.142 -0.113,-0.118 -0.181,-0.267c-0.147,-0.322 -0.172,-0.317 -0.194,-0.672Z" style="fill:#8ab2d8;"/><path d="M12.066,14.792c-0.001,-0 -0.119,0.009 -0.248,-0.04c-0.436,-0.164 -0.432,-0.862 0.137,-0.95c0.457,-0.071 0.752,0.597 0.34,0.899c-0.046,0.034 -0.084,0.049 -0.092,0.052c-0.068,0.027 -0.07,0.012 -0.136,0.039Z" style="fill:#94b5d5;"/><path d="M11.835,12.077c0.102,-0.013 0.221,-0.106 0.49,0.089c0.079,0.057 0.163,0.23 0.158,0.379c-0.024,0.709 -1.144,0.585 -0.956,-0.138c0.069,-0.265 0.282,-0.316 0.308,-0.33Z" style="fill:#96b5d6;"/></g></svg>