<?xml version="1.0" encoding="UTF-8" standalone="no"?><!DOCTYPE svg PUBLIC "-//W3C//DTD SVG 1.1//EN" "http://www.w3.org/Graphics/SVG/1.1/DTD/svg11.dtd"><svg width="100%" height="100%" viewBox="0 0 24 24" version="1.1" xmlns="http://www.w3.org/2000/svg" xmlns:xlink="http://www.w3.org/1999/xlink" xml:space="preserve" xmlns:serif="http://www.serif.com/" style="fill-rule:evenodd;clip-rule:evenodd;stroke-linejoin:round;stroke-miterlimit:2;"><g id="ANNUAL-LEAVE" serif:id="ANNUAL LEAVE"><path d="M19.15,12.438c0.002,0.285 -0.05,0.62 0.168,0.73c0.442,0.223 1.163,0.366 2.135,1.586c0.446,0.559 1.08,1.842 0.912,3.278c-0.023,0.2 -0.163,1.401 -0.904,2.352c-1.544,1.982 -4.597,2.715 -6.929,0.471c-0.741,-0.713 -0.616,-1.08 -1.02,-1.121c-0.124,-0.013 -6.437,-0.002 -6.997,-0.001c-2.148,0.004 -2.236,0.039 -2.91,-0.307c-0.398,-0.205 -1.069,-0.834 -1.16,-1.743c-0.044,-0.438 -0.015,-3.213 -0.022,-6.992c-0.009,-4.504 -0.021,-4.505 0.026,-4.893c0.061,-0.504 0.552,-2.106 2.434,-2.142c0.342,-0.006 0.458,0.035 0.478,-0.307c0.011,-0.193 0.004,-0.457 0.197,-0.83c0.603,-1.168 2.73,-0.995 2.808,0.714c0.012,0.268 -0.018,0.419 0.365,0.422c1.631,0.01 3.858,-0.001 4.193,-0.002c0.554,-0.003 0.01,-0.63 0.669,-1.379c0.795,-0.903 2.35,-0.565 2.609,0.723c0.046,0.229 -0.012,0.234 0.034,0.463c0.077,0.38 0.638,-0.015 1.595,0.449c0.628,0.305 1.307,1.08 1.322,2.12c0.007,0.513 0.008,0.538 -0.004,6.411Z" style="fill:#3a75ab;"/><path d="M5.7,18.69c-0.86,-0 -1.391,0.078 -1.876,-0.413c-0.459,-0.465 -0.364,-0.823 -0.367,-3.158c-0.004,-3.032 0.007,-3.03 -0.002,-6.061c-0.001,-0.243 -0.04,-0.488 0.261,-0.502c0.066,-0.003 8.473,-0.001 9.21,-0.001c5.026,0.001 5.041,-0.013 5.117,0.05c0.103,0.085 0.074,0.164 0.08,1.736c0.001,0.149 0.002,2.406 -0.01,2.435c-0.139,0.337 -0.755,-0.142 -2.415,0.666c-0.444,0.216 -0.748,0.341 -1.496,1.205c-0.389,0.449 -0.9,1.374 -0.995,2.342c-0.098,1 0.094,1.499 0.04,1.609c-0.006,0.012 -0.089,0.085 -0.097,0.087c-0.031,0.006 -6.304,0.001 -7.449,0.004Z" style="fill:#eef5f9;"/><path d="M17.115,21.112c-0.153,-0.024 -0.963,-0.151 -1.734,-0.874c-2.235,-2.096 -1.144,-5.622 1.75,-6.242c1.102,-0.236 2.334,0.172 3.211,1.049c1.11,1.111 1.497,3.151 0.268,4.729c-0.802,1.03 -1.881,1.302 -2.215,1.351c-0.766,0.112 -1.205,-0.002 -1.28,-0.013Z" style="fill:#fbfefe;"/><path d="M18.123,6.727c-0.002,0.423 0.047,0.752 -0.191,0.788c-0.021,0.003 -14.19,0.023 -14.32,-0.01c-0.155,-0.039 -0.159,-0.283 -0.16,-0.311c-0.023,-1.238 0.026,-1.393 0.063,-1.508c0.036,-0.114 0.253,-0.795 1.127,-0.985c0.634,-0.138 0.677,0.109 0.687,0.165c0.01,0.061 -0.116,1.287 1.056,1.671c0.862,0.282 1.946,-0.25 1.982,-1.327c0.004,-0.122 -0.065,-0.527 0.25,-0.543c0.049,-0.002 4.277,-0 4.306,0c0.519,0.011 -0.01,0.497 0.583,1.36c0.132,0.192 0.414,0.358 0.451,0.38c0.658,0.405 2.19,0.318 2.272,-1.312c0.016,-0.321 -0.013,-0.432 0.31,-0.431c0.147,0.001 0.564,-0.037 1.049,0.311c0.173,0.125 0.468,0.49 0.511,0.928c0.02,0.203 0.023,0.755 0.024,0.821Z" style="fill:#f9fdfe;"/><path d="M5.693,9.961c0.063,-0.009 0.061,-0.046 1.289,-0.039c1.185,0.007 1.311,0.489 1.326,1.583c0.011,0.82 0.129,1.713 -1.092,1.769c-1.482,0.068 -1.722,-0.087 -1.846,-0.167c-0.434,-0.28 -0.468,-0.583 -0.451,-2.067c0.01,-0.908 0.686,-1.048 0.774,-1.078Z" style="fill:#88b0d6;"/><path d="M5.934,17.284c-0.041,-0.005 -0.082,-0.008 -0.123,-0.012c-1,-0.12 -0.89,-1.202 -0.89,-1.454c-0.001,-0.621 -0.116,-1.499 0.681,-1.815c0.12,-0.048 0.293,-0.116 1.614,-0.072c1.242,0.042 1.087,1.411 1.087,1.421c0.011,1.24 -0.016,1.249 -0.119,1.418c-0.345,0.569 -0.674,0.507 -2.25,0.514Z" style="fill:#8cb3d9;"/><path d="M11.648,17.263c-0.644,0.023 -0.642,-0.001 -1.286,0.016c-1.101,0.029 -1.204,-0.752 -1.219,-0.87c-0.032,-0.244 -0.047,-1.427 -0.006,-1.628c0.074,-0.356 0.4,-0.845 1.107,-0.858c1.292,-0.024 1.394,0.014 1.507,0.056c0.793,0.293 0.721,1.048 0.719,1.84c-0.001,0.369 0.071,1.032 -0.501,1.349c-0.1,0.055 -0.104,0.042 -0.321,0.096Z" style="fill:#8ab2d8;"/><path d="M12.006,10.086c0.005,0.005 0.227,0.111 0.371,0.472c0.049,0.123 0.126,0.318 0.085,1.647c-0.036,1.164 -1.026,1.063 -1.634,1.065c-0.663,0.003 -1.678,0.118 -1.706,-1.066c-0.042,-1.732 0.113,-1.713 0.119,-1.724c0.342,-0.665 1.282,-0.562 1.355,-0.563c1.013,-0.005 1.025,-0.014 1.411,0.169Z" style="fill:#8db3d7;"/><path d="M18.778,17.825c-1.358,1.375 -1.464,1.646 -1.881,1.465c-0.126,-0.055 -0.247,-0.107 -1.263,-1.169c-0.557,-0.582 0.108,-1.27 0.709,-0.713c0.044,0.04 0.136,0.126 0.525,0.527c0.268,0.275 0.336,0.074 0.967,-0.587c1.146,-1.201 1.336,-1.354 1.464,-1.457c0.436,-0.352 1.172,0.19 0.518,0.876c-0.391,0.41 -0.957,0.975 -1.041,1.059Z" style="fill:#3973a9;"/><path d="M15.205,3.35c0.008,1.875 0.013,1.932 -0.165,2.111c-0.173,0.175 -0.793,0.278 -0.806,-0.483c-0.03,-1.78 0.011,-1.843 0.097,-1.977c0.106,-0.165 0.386,-0.263 0.556,-0.187c0.323,0.144 0.318,0.535 0.318,0.535Z" style="fill:#f2fbfd;"/><path d="M6.387,3.464c0.003,-0.066 -0.049,-0.538 0.37,-0.664c0.086,-0.026 0.503,-0.025 0.578,0.43c0.047,0.29 0.016,1.609 0.013,1.749c-0.019,0.796 -0.673,0.581 -0.754,0.523c-0.236,-0.171 -0.213,-0.225 -0.208,-2.038Z" style="fill:#f2fdfe;"/><path d="M11.479,11.39c0,0.548 0.016,0.713 -0.076,0.807c-0.097,0.1 -1.034,0.084 -1.169,0.025c-0.135,-0.059 -0.121,-0.277 -0.113,-0.95c0.005,-0.436 0.203,-0.36 0.823,-0.361c0.392,-0.001 0.512,-0.026 0.534,0.363c0.002,0.038 -0.002,0.077 0,0.115Z" style="fill:#f9fdfe;"/><path d="M6.632,10.912c0.44,0.006 0.657,-0.062 0.663,0.362c0.011,0.856 -0.015,0.87 -0.08,0.932c-0.028,0.027 -0.043,0.064 -0.932,0.061c-0.446,-0.001 -0.336,-0.197 -0.341,-0.645c-0.004,-0.344 -0.018,-0.526 0.066,-0.619c0.11,-0.122 0.347,-0.091 0.623,-0.091Z" style="fill:#f2fbfd;"/><path d="M6.749,16.267c-0.477,-0 -0.658,0.018 -0.734,-0.058c-0.055,-0.055 -0.1,-0.101 -0.077,-0.973c0.009,-0.324 0.154,-0.319 1.042,-0.297c0.384,0.01 0.327,0.251 0.32,0.878c-0.002,0.201 0.005,0.297 -0.061,0.373c-0.092,0.104 -0.332,0.075 -0.49,0.078Z" style="fill:#f8fdfe;"/><path d="M10.827,14.948c0.038,-0 0.442,-0 0.48,0.01c0.018,0.005 0.12,0.032 0.163,0.171c0.006,0.02 0.007,0.204 0.007,0.222c0.004,0.641 0.027,0.88 -0.187,0.918c-0.058,0.01 -0.875,0.005 -0.928,0.001c-0.019,-0.001 -0.161,-0.011 -0.211,-0.113c-0.052,-0.108 -0.014,-1.032 -0.014,-1.036c0.054,-0.245 0.546,-0.176 0.689,-0.173Z" style="fill:#f3fcfe;"/></g></svg>