<?xml version="1.0" encoding="UTF-8" standalone="no"?><!DOCTYPE svg PUBLIC "-//W3C//DTD SVG 1.1//EN" "http://www.w3.org/Graphics/SVG/1.1/DTD/svg11.dtd"><svg width="100%" height="100%" viewBox="0 0 24 24" version="1.1" xmlns="http://www.w3.org/2000/svg" xmlns:xlink="http://www.w3.org/1999/xlink" xml:space="preserve" xmlns:serif="http://www.serif.com/" style="fill-rule:evenodd;clip-rule:evenodd;stroke-linejoin:round;stroke-miterlimit:2;"><g id="dinas-luar" serif:id="dinas luar"><path d="M9.432,19.684c-0.002,-0.011 0.011,-0.028 -0.017,-0.078c-0.018,-0.032 -0.116,-0.112 -0.168,-0.185c-0.09,-0.125 -0.099,-0.117 -0.185,-0.244c-0.019,-0.027 -0.135,-0.199 -0.233,-0.339c-0.209,-0.298 -0.614,-1.046 -0.593,-1.145c0.011,-0.053 0.207,-0.091 0.536,-0.187c0.071,-0.021 0.189,-0.077 0.247,-0.009c0.039,0.045 0.476,1.123 1.285,1.871c0.128,0.118 0.514,0.478 1.046,0.639c0.095,0.029 0.19,0.063 0.194,-0.062c0.002,-0.051 0.001,-2.961 -0.001,-3.302c-0.001,-0.188 0.033,-0.189 0.202,-0.27c0.042,-0.02 0.521,-0.249 0.521,-0.249c0.125,-0.05 0.093,0.128 0.093,0.136c-0.007,0.34 -0.008,3.705 -0.001,3.732c0.016,0.057 0.087,0.046 0.096,0.045c0.071,-0.011 0.49,-0.116 0.951,-0.484c0.225,-0.179 0.224,-0.18 0.425,-0.385c0.151,-0.154 0.48,-0.271 0.882,-0.499c0.052,-0.03 0.345,-0.189 0.375,-0.205c0.146,-0.079 0.276,-0.231 0.287,-0.238c0.005,-0.003 0.056,-0.033 0.075,0.003c0.019,0.035 -0.039,0.074 -0.25,0.434c-0.025,0.043 -0.152,0.258 -0.345,0.522c-0.094,0.128 -0.132,0.197 -0.355,0.421c-0.022,0.022 -0.034,0.021 -0.022,0.049c0.006,0.014 0.018,0.034 0.034,0.032c0.033,-0.002 0.028,-0.018 0.387,-0.162c0.935,-0.374 1.459,-0.774 1.622,-0.874c0.126,-0.077 0.581,-0.423 0.95,-0.772c0.082,-0.078 0.095,-0.11 0.002,-0.176c-0.009,-0.006 -0.313,-0.204 -0.764,-0.431c-0.364,-0.184 -0.527,-0.235 -0.54,-0.288c-0.015,-0.063 0.077,-0.216 0.096,-0.254c0.115,-0.231 0.184,-0.418 0.257,-0.423c0.057,-0.004 0.305,0.13 0.433,0.187c0.179,0.079 0.621,0.314 0.847,0.455c0.214,0.133 0.283,0.186 0.344,0.168c0.072,-0.022 0.715,-0.879 1.135,-1.82c0.503,-1.125 0.621,-2.013 0.688,-2.625c0.026,-0.24 -0.02,-0.327 0.087,-0.392c0.067,-0.04 0.653,-0.338 0.675,-0.339c0.007,-0 0.058,-0.003 0.065,0.056c0.006,0.05 -0,0.357 -0.001,0.388c-0.003,0.151 -0.042,0.763 -0.152,1.293c-0.091,0.44 -0.232,1.233 -0.906,2.54c-0.049,0.094 -0.454,0.821 -0.877,1.33c-0.095,0.114 -0.64,0.829 -1.518,1.498c-0.339,0.259 -1.036,0.79 -2.117,1.223c-0.371,0.149 -1.276,0.459 -2.247,0.565c-1.647,0.18 -2.815,-0.093 -3.631,-0.327c-0.136,-0.039 -0.846,-0.277 -1.35,-0.549c-0.376,-0.203 -0.38,-0.196 -0.744,-0.419c-0.049,-0.03 -0.152,-0.101 -0.165,-0.11c-0.027,-0.019 -1.152,-0.721 -1.976,-1.813c-0.154,-0.205 -0.201,-0.23 -0.224,-0.242c-0.083,-0.045 -1.19,-0.082 -2.043,-0.742c-0.314,-0.243 -0.547,-0.449 -0.836,-0.986c-0.016,-0.029 -0.384,-0.677 -0.218,-1.585c0.084,-0.458 0.184,-0.728 0.492,-1.233c0.013,-0.022 0.282,-0.415 0.376,-0.528c0.274,-0.334 0.284,-0.324 0.357,-0.405c0.114,-0.127 0.046,-0.153 0.111,-0.705c0.01,-0.086 0.108,-1.779 1.081,-3.503c0.056,-0.099 0.551,-1.035 1.482,-1.971c0.707,-0.711 1.363,-1.128 1.686,-1.333c0.207,-0.131 0.865,-0.472 1.105,-0.569c0.901,-0.366 1.233,-0.434 1.871,-0.558c1.761,-0.34 3.484,-0.043 4.596,0.361c1.429,0.519 2.336,1.254 2.873,1.728c0.103,0.091 0.668,0.589 1.173,1.264c0,0 0.474,0.661 0.595,0.894c0.174,0.335 0.232,0.351 0.162,0.409c-0.04,0.033 -0.05,0.001 -0.648,0.102c-0.191,0.032 -0.173,-0.043 -0.32,-0.276c-0.043,-0.068 -0.365,-0.579 -0.576,-0.816c-0.127,-0.143 -0.153,-0.02 -0.501,0.18c-0.738,0.423 -1.394,0.661 -1.424,0.69c-0.006,0.005 -0.039,0.037 -0.027,0.092c0.018,0.085 0.04,0.08 0.265,1.058c0.033,0.145 0.04,0.172 -0.092,0.241c-0.04,0.021 -0.33,0.173 -0.488,0.269c-0.007,0.004 -0.071,0.043 -0.089,0.042c-0.047,-0.002 -0.063,-0.062 -0.065,-0.069c-0.023,-0.086 -0.013,-0.178 -0.18,-0.866c-0.009,-0.036 -0.1,-0.409 -0.13,-0.439c-0.006,-0.006 -0.034,-0.034 -0.097,-0.019c-0.007,0.002 -0.112,0.038 -0.244,0.075c-1.33,0.375 -2.42,0.408 -2.633,0.415c-0.068,0.002 -0.146,-0.007 -0.149,0.109c-0.001,0.038 0.005,0.038 0.004,0.479c-0,0.011 -0,0.121 -0.009,0.138c-0.02,0.04 -0.076,0.036 -0.083,0.036c-0.07,-0.004 -0.529,-0.078 -0.575,-0.085c-0.092,-0.015 -0.135,-0.009 -0.141,-0.137c-0.008,-0.194 0.017,-0.466 -0.021,-0.511c-0.046,-0.055 -0.066,0.004 -0.894,-0.091c-1.45,-0.166 -2.074,-0.446 -2.151,-0.434c-0.064,0.01 -0.059,0.023 -0.081,0.084c-0.056,0.152 -0.307,1.266 -0.364,1.764c-0.036,0.313 -0.037,0.312 -0.07,0.625c-0.042,0.405 -0.032,0.405 -0.057,0.812c-0.001,0.011 -0.008,0.127 -0.004,0.144c0.029,0.139 0.314,-0.001 0.518,0.113c0.15,0.084 0.15,0.081 0.815,0.43c0.251,0.131 0.25,0.131 0.505,0.252c0.011,0.005 0.024,0.008 0.035,0.013c0.03,0.014 0.029,0.018 0.029,0.051c-0,0.057 -0.027,0.04 -0.084,0.036c-0.328,-0.023 -0.328,-0.011 -1.243,-0.013c-0.539,-0.001 -0.55,0.009 -0.569,0.032c-0.026,0.032 -0.016,0.118 0.004,0.474c0.003,0.056 0.024,0.205 -0.016,0.228c-0.046,0.026 -0.047,0.004 -0.096,-0.015c-0.215,-0.081 -0.621,-0.189 -0.655,-0.222c-0.054,-0.052 -0.03,-0.065 -0.051,-0.374c-0.009,-0.14 -0.056,-0.123 -0.196,-0.123c-1.741,0.002 -2.882,-0.006 -2.926,0.006c-0.076,0.022 -0.073,0.077 -0.021,0.498c0.095,0.775 0.255,1.295 0.351,1.585c0.166,0.5 0.219,0.527 0.263,0.549c0.075,0.037 0.469,0.16 1.089,0.159c0.253,-0 0.256,0.003 0.271,-0.013c0.025,-0.024 0.003,-0.062 0,-0.066c-0.008,-0.014 -0.015,-0.008 -0.139,-0.145c-0.182,-0.2 -0.178,-0.203 -0.365,-0.399c-0.037,-0.039 -0.258,-0.246 -0.152,-0.521c0.079,-0.205 0.329,-0.279 0.678,-0.463c0.382,-0.201 0.608,-0.19 0.663,-0.187c0.297,0.015 0.368,0.079 0.817,0.208c0.251,0.072 1.225,0.41 1.288,0.412c0.095,0.003 0.211,-0.094 1.201,-0.633c0.57,-0.31 0.975,-0.551 1.389,-0.764c0.008,-0.004 0.088,-0.046 0.093,-0.055c0.037,-0.081 -0.025,-0.064 -0.281,-0.208c-0.041,-0.023 -2.27,-1.151 -2.362,-1.215c-0.32,-0.223 -0.218,-0.572 0.023,-0.709c0.353,-0.201 0.362,-0.183 0.714,-0.388c0.001,-0.001 0.403,-0.212 0.475,-0.243c0.509,-0.216 0.941,-0.044 1.91,0.069c0.193,0.022 3.413,0.505 3.538,0.487c0.063,-0.009 0.304,-0.152 0.381,-0.191c0.081,-0.041 0.077,-0.048 0.997,-0.541c0.078,-0.042 0.599,-0.33 0.679,-0.367c0.098,-0.047 0.934,-0.577 2.056,-0.734c0.156,-0.022 1.041,-0.146 1.965,0.162c0.383,0.128 0.613,0.308 0.728,0.717c0.062,0.22 0.01,0.638 -0.254,0.956c-0.176,0.213 -0.256,0.277 -0.514,0.492c-0.286,0.238 -0.852,0.458 -1.642,0.888c-0.113,0.061 -0.12,0.046 -1.434,0.721c-0.334,0.171 -0.334,0.169 -0.669,0.336c-0.177,0.088 -0.152,0.119 -0.308,0.403c-0.038,0.068 -1.951,3.829 -1.989,3.909c-0.288,0.62 -0.431,0.712 -0.669,0.857c-0.225,0.137 -0.674,0.345 -0.851,0.448c-0.523,0.301 -0.625,0.298 -0.82,0.181c-0.249,-0.15 -0.144,-0.542 -0.126,-0.715c0.007,-0.065 0.056,-0.445 0.061,-0.483c0.102,-0.789 0.26,-1.855 0.291,-2.105c0.012,-0.098 0.045,-0.268 0.042,-0.282c-0.002,-0.007 -0.011,-0.007 -0.017,-0.012c-0.016,-0.015 -0.023,-0.042 -0.147,0.025c-0.092,0.05 -1.232,0.599 -1.487,0.709c-0.49,0.21 -2.315,1.1 -4.114,1.45c-0.436,0.085 -0.456,0.106 -1.2,0.177c-0.179,0.017 -0.319,0.012 -0.327,0.015c-0.004,0.002 -0.018,0.061 -0.015,0.075c0.006,0.029 0.383,0.399 0.5,0.507c0.093,0.086 0.331,0.288 0.36,0.313c0.487,0.415 1.325,0.915 1.775,1.099c0.19,0.078 0.188,0.079 0.379,0.155c0.323,0.128 0.315,0.146 0.345,0.154c0.012,0.003 0.025,-0.006 0.037,-0.003Z" style="fill:#419cc3;"/><path d="M13.308,12.463c0.017,-0.009 1.941,-1.072 2.44,-1.34c0.708,-0.379 2.05,-1.136 2.602,-1.4c0.579,-0.277 1.254,-0.428 1.762,-0.428c0.584,-0 0.897,0.097 0.913,0.1c0.066,0.015 0.561,0.086 0.366,0.398c-0.141,0.226 -0.338,0.365 -0.423,0.432c-0.183,0.145 -0.199,0.129 -1.969,1.035c-1.123,0.575 -1.124,0.57 -1.221,0.621c-0.653,0.338 -0.729,0.348 -0.835,0.497c-0.118,0.165 -2.326,4.569 -2.453,4.777c-0.016,0.026 -0.044,0.073 -0.307,0.214c-0.276,0.148 -0.273,0.155 -0.298,0.165c-0.038,0.016 -0.041,-0.002 -0.053,-0.014c-0.008,-0.007 -0.023,-0.008 -0.027,-0.018c-0.002,-0.006 -0.001,-0.007 0.021,-0.144c0.062,-0.395 0.054,-0.395 0.06,-0.43c0.032,-0.19 0.023,-0.191 0.054,-0.382c0.048,-0.303 0.215,-1.653 0.289,-2.201c0.05,-0.371 -0.253,-0.599 -0.615,-0.415c-0.506,0.257 -0.51,0.245 -1.02,0.496c-0.207,0.102 -1.742,0.857 -2.631,1.193c-1.288,0.488 -2.982,1.073 -4.729,0.961c-0.968,-0.062 -1.583,-0.365 -1.831,-0.544c-0.361,-0.26 -1.152,-0.903 -0.72,-2.221c0.079,-0.241 0.275,-0.558 0.288,-0.578c0.11,-0.161 0.098,-0.187 0.156,-0.186c0.04,0.001 0.037,0.012 0.042,0.052c0.046,0.387 0.049,0.386 0.127,0.768c0.117,0.568 0.318,1.088 0.359,1.191c0.226,0.565 0.288,0.599 0.392,0.647c0.837,0.391 2.044,0.29 2.238,0.266c0.388,-0.049 0.393,-0.016 0.625,-0.09c0.168,-0.053 0.405,-0.249 0.238,-0.583c-0.067,-0.133 -0.635,-0.72 -0.671,-0.765c-0.062,-0.079 -0.142,-0.132 -0.139,-0.19c0.002,-0.045 0.052,-0.06 0.14,-0.093c0.165,-0.061 0.173,-0.032 0.717,0.138c0.096,0.03 1.161,0.363 1.199,0.373c0.599,0.163 0.606,0.035 1.156,-0.254c0.38,-0.199 0.375,-0.206 0.752,-0.41c0.763,-0.414 0.76,-0.419 0.826,-0.454c0.921,-0.486 1.069,-0.587 2.182,-1.184Z" style="fill:#fdfefe;"/><path d="M7.309,9.374c-0.251,1.625 -0.175,2.115 -0.229,2.186c-0.028,0.037 -0.038,0.032 -0.845,0.031c-2.231,-0.001 -2.231,0.002 -2.254,-0.005c-0.061,-0.017 -0.059,-0.1 -0.059,-0.11c0.005,-0.224 0.133,-1.357 0.439,-2.156c0.03,-0.077 0.099,-0.312 0.38,-0.911c0.205,-0.436 0.497,-0.871 0.526,-0.911c0.022,-0.031 0.182,-0.26 0.198,-0.283c0.056,-0.08 0.222,-0.298 0.251,-0.324c0.074,-0.066 0.088,-0.044 0.172,0.01c0.917,0.586 1.356,0.706 1.679,0.858c0.145,0.069 0.085,0.114 0.04,0.268c-0.03,0.103 -0.2,0.782 -0.261,1.155c-0.003,0.018 -0.035,0.177 -0.038,0.192Z" style="fill:#fdfefe;"/><path d="M13.654,7.667c-0.095,0.014 -0.726,0.108 -1.199,0.118c-0.011,0 -0.096,0.002 -0.101,-0.089c-0.013,-0.229 0.014,-0.229 0.002,-2.872c-0.001,-0.171 -0.001,-0.547 -0.002,-0.622c-0.001,-0.174 -0.024,-0.264 0.145,-0.222c0.316,0.078 0.571,0.191 1.038,0.577c0.159,0.132 0.367,0.379 0.397,0.414c0.324,0.385 0.365,0.486 0.45,0.609c0.101,0.146 0.522,0.851 0.769,1.535c0.021,0.058 0.089,0.171 -0.012,0.213c-0.147,0.061 -0.959,0.267 -1.488,0.339Z" style="fill:#fdfefe;"/><path d="M11.207,4.046c0.049,-0.017 0.268,-0.107 0.318,-0.06c0.023,0.022 0.023,0.112 0.023,0.122c0.001,3.258 0.003,3.258 0.001,3.541c-0.001,0.121 -0.026,0.137 -0.145,0.132c-0.473,-0.019 -0.906,-0.083 -1.003,-0.097c-0.108,-0.016 -0.856,-0.125 -1.344,-0.267c-0.298,-0.087 -0.337,-0.088 -0.343,-0.149c-0.007,-0.086 0.464,-1.15 0.716,-1.539c0.067,-0.103 0.334,-0.556 0.775,-1c0.557,-0.561 0.994,-0.679 1.002,-0.682Z" style="fill:#fdfefe;"/><path d="M13.223,10.886c0.469,0.069 0.833,0.108 0.906,0.115c0.042,0.005 0.055,0.001 0.055,0.044c-0,0.061 -0.03,0.042 -0.186,0.119c-0.117,0.057 -1.571,0.871 -1.594,0.88c-0.129,0.054 -0.189,-0.036 -0.426,-0.142c-0.236,-0.106 -1.035,-0.541 -1.619,-0.83c-0.191,-0.095 -0.19,-0.096 -0.383,-0.188c-0.007,-0.003 -0.088,-0.042 -0.09,-0.045c-0.008,-0.01 -0.012,-0.06 -0.005,-0.072c0,-0.001 0.327,-0.196 0.471,-0.238c0.181,-0.052 0.455,0.027 2.248,0.267c0.004,0 0.382,0.061 0.623,0.09Z" style="fill:#fcfefe;"/><path d="M8.352,6.027c-0.427,0.894 -0.351,0.997 -0.485,0.981c-0.031,-0.004 -0.843,-0.372 -1.097,-0.522c-0.373,-0.222 -0.407,-0.207 -0.403,-0.275c0.004,-0.078 0.727,-0.667 0.875,-0.763c0.035,-0.023 0.181,-0.126 0.196,-0.137c0.747,-0.528 1.488,-0.804 1.626,-0.855c0.342,-0.128 0.334,-0.169 0.377,-0.152c0.056,0.023 0.042,0.045 -0,0.089c-0.057,0.06 -0.066,0.05 -0.121,0.111c-0.089,0.098 -0.396,0.519 -0.431,0.573c-0.312,0.489 -0.453,0.793 -0.536,0.949Z" style="fill:#fcfefe;"/><path d="M15.661,4.826c0.353,0.186 0.353,0.186 0.723,0.423c0.369,0.237 1.145,0.886 1.155,0.961c0.008,0.062 -0.01,0.059 -0.063,0.092c-0.387,0.245 -1.101,0.568 -1.2,0.612c-0.018,0.008 -0.205,0.093 -0.234,0.097c-0.082,0.012 -0.118,-0.148 -0.13,-0.181c-0.254,-0.702 -0.749,-1.581 -1.026,-1.951c-0.03,-0.04 -0.274,-0.366 -0.394,-0.479c-0.002,-0.002 -0.031,-0.016 -0.031,-0.055c-0,-0.033 0.013,-0.03 0.044,-0.021c0.003,0.001 0.52,0.199 0.635,0.249c0.252,0.108 0.479,0.231 0.52,0.253Z" style="fill:#fcfefe;"/></g></svg>