<?xml version="1.0" encoding="UTF-8" standalone="no"?><!DOCTYPE svg PUBLIC "-//W3C//DTD SVG 1.1//EN" "http://www.w3.org/Graphics/SVG/1.1/DTD/svg11.dtd"><svg width="100%" height="100%" viewBox="0 0 24 24" version="1.1" xmlns="http://www.w3.org/2000/svg" xmlns:xlink="http://www.w3.org/1999/xlink" xml:space="preserve" xmlns:serif="http://www.serif.com/" style="fill-rule:evenodd;clip-rule:evenodd;stroke-linejoin:round;stroke-miterlimit:2;"><g id="REIMBURSEMENT"><path d="M5.766,3.897c0.05,-0.242 0.049,-0.474 0.585,-0.483c0.884,-0.015 0.941,0.043 1.138,0.478c0.223,0.493 0.7,0.486 0.902,0.375c0.45,-0.246 0.232,-0.732 0.751,-0.84c0.035,-0.007 1.748,-0.054 1.961,0.024c0.339,0.124 0.301,0.896 0.916,0.88c0.516,-0.013 0.65,-0.619 0.654,-0.627c0.16,-0.345 0.392,-0.286 1.51,-0.286c0.833,0 0.957,-0.045 1.146,0.47c0.217,0.59 0.997,0.54 1.21,-0.001c0.159,-0.404 0.19,-0.478 0.839,-0.482c0.72,-0.004 0.867,0.078 0.866,0.797c-0.001,4.981 -0.002,9.963 -0.003,14.944c-0.003,1.107 0.08,1.428 -0.657,1.433c-0.61,0.005 -0.774,-0.044 -0.912,-0.209c-0.129,-0.154 -0.186,-0.698 -0.737,-0.715c-0.474,-0.014 -0.596,0.426 -0.597,0.427c-0.2,0.478 -0.278,0.497 -1.052,0.491c-1.21,-0.01 -1.361,0.024 -1.541,-0.194c-0.11,-0.134 -0.161,-0.719 -0.726,-0.734c-0.63,-0.016 -0.571,0.706 -0.823,0.845c-0.13,0.072 -0.171,0.094 -1.857,0.079c-0.569,-0.005 -0.58,-0.352 -0.67,-0.575c-0.097,-0.239 -0.328,-0.308 -0.365,-0.32c-0.539,-0.161 -0.768,0.345 -0.797,0.41c-0.213,0.47 -0.276,0.521 -1.157,0.505c-0.654,-0.012 -0.592,-0.473 -0.592,-0.927c0,-1.261 0.003,-15.42 0.007,-15.766Z" style="fill:#3974aa;"/><path d="M6.668,18.736c0.001,-3.985 0.001,-7.97 0.002,-11.955c-0.003,-1.085 0.036,-1.085 -0.03,-2.168c-0.001,-0.018 -0.014,-0.235 0.116,-0.186c0.016,0.006 0.009,0.033 0.02,0.046c0.019,0.023 0.051,0.035 0.068,0.06c0.015,0.023 0.022,0.124 0.217,0.304c0.37,0.341 0.858,0.387 0.94,0.395c0.985,0.092 1.399,-0.73 1.525,-0.846c0.05,-0.046 0.108,-0.098 0.845,-0.07c0.361,0.014 0.259,0.193 0.612,0.516c0.522,0.479 1.139,0.404 1.242,0.391c0.828,-0.101 1.062,-0.673 1.07,-0.686c0.155,-0.244 0.251,-0.219 0.684,-0.222c0.424,-0.003 0.485,-0.05 0.723,0.302c0.612,0.904 1.944,0.729 2.37,0.104c0.01,-0.014 0.122,-0.178 0.124,-0.18c0.033,-0.025 0.154,-0.028 0.168,-0.014c0.047,0.045 -0.017,0.06 -0.013,1.74c0.004,1.649 -0,11.082 0.006,12.058c0.007,1.077 0.107,1.275 -0.085,1.175c-0.092,-0.048 -0.105,-0.118 -0.111,-0.129c-0.218,-0.391 -0.703,-0.587 -1.018,-0.617c-1.166,-0.109 -1.54,0.788 -1.675,0.871c-0.054,0.033 -0.111,0.068 -0.797,0.042c-0.431,-0.017 -0.337,-0.354 -0.722,-0.619c-0.55,-0.38 -1.146,-0.459 -1.851,0.005c-0.289,0.19 -0.376,0.433 -0.493,0.54c-0.05,0.046 -0.111,0.102 -0.85,0.068c-0.337,-0.015 -0.224,-0.202 -0.601,-0.532c-0.846,-0.74 -1.915,-0.277 -2.187,0.119c-0.119,0.173 -0.104,0.182 -0.116,0.196c-0.019,0.025 -0.05,0.039 -0.071,0.063c-0.01,0.011 -0.006,0.035 -0.02,0.039c-0.025,0.008 -0.057,0.007 -0.079,-0.008c-0.072,-0.048 -0.021,-0.072 -0.009,-0.801Z" style="fill:#fcfefe;"/><path d="M13.352,9.11c-0.425,-0.017 -0.4,-0.118 -0.557,-0.456c-0.004,-0.008 -0.105,-0.324 -0.567,-0.442c-0.663,-0.169 -1.273,0.367 -0.934,0.941c0.327,0.554 1.659,0.105 2.305,1.321c0.303,0.572 0.169,1.635 -0.846,2.009c-0.251,0.092 -0.272,0.113 -0.297,0.38c-0.063,0.698 -0.777,0.656 -0.873,0.105c-0.023,-0.131 0.013,-0.326 -0.184,-0.413c-0.086,-0.038 -0.7,-0.195 -1.003,-0.839c-0.365,-0.776 0.277,-1.128 0.611,-0.835c0.228,0.2 0.165,0.735 0.805,0.85c0.299,0.054 0.828,-0.056 0.954,-0.405c0.114,-0.315 -0.044,-0.568 -0.126,-0.633c-0.571,-0.448 -1.631,-0.159 -2.206,-1.214c-0.028,-0.051 -0.646,-1.409 0.872,-2.058c0.192,-0.082 0.23,-0.092 0.242,-0.33c0.002,-0.047 0.021,-0.434 0.259,-0.53c0.139,-0.056 0.578,-0.087 0.624,0.424c0.021,0.231 0.01,0.232 0.037,0.29c0.075,0.162 0.68,0.182 1.066,0.86c0.262,0.46 0.177,0.829 -0.061,0.934c-0.039,0.017 -0.082,0.022 -0.121,0.039Z" style="fill:#88b0d7;"/><path d="M8.036,14.917c0.004,-0.048 -0.01,-0.046 -0.005,-0.096c0.001,-0.01 0.005,-0.053 0.025,-0.12c0.106,-0.355 0.396,-0.301 1.696,-0.304c0.453,-0.001 5.41,-0.014 5.669,-0.005c0.062,0.002 0.662,0.024 0.557,0.54c-0.081,0.398 -0.545,0.368 -0.763,0.367c-2.549,-0.012 -6.477,0.008 -6.697,-0.006c-0.437,-0.028 -0.478,-0.37 -0.481,-0.376Z" style="fill:#87b1d7;"/><path d="M8.032,16.678c0.075,-0.221 0.053,-0.42 0.689,-0.415c2.135,0.017 4.347,-0.005 4.637,0.012c0.684,0.04 0.619,0.809 0.099,0.888c-0.203,0.031 -0.236,0.036 -2.571,0.017c-2.104,-0.017 -2.469,0.056 -2.671,-0.104c-0.214,-0.17 -0.178,-0.355 -0.182,-0.397Z" style="fill:#87b0d6;"/></g></svg>