<?xml version="1.0" encoding="UTF-8" standalone="no"?><!DOCTYPE svg PUBLIC "-//W3C//DTD SVG 1.1//EN" "http://www.w3.org/Graphics/SVG/1.1/DTD/svg11.dtd"><svg width="100%" height="100%" viewBox="0 0 24 24" version="1.1" xmlns="http://www.w3.org/2000/svg" xmlns:xlink="http://www.w3.org/1999/xlink" xml:space="preserve" xmlns:serif="http://www.serif.com/" style="fill-rule:evenodd;clip-rule:evenodd;stroke-linejoin:round;stroke-miterlimit:2;"><g id="SICK-LEAVE" serif:id="SICK LEAVE"><path d="M20.843,21.937c-0.542,0.067 -0.544,0.049 -6.866,0.055c-9.604,0.009 -9.603,0.024 -10.437,-0.02c-0.658,-0.035 -0.989,-0.201 -1.41,-0.486c-1.371,-0.929 -1.169,-2.636 -1.17,-3.068c-0.001,-0.815 -0.016,-9.163 0.015,-10.184c0.037,-1.242 1.011,-2.618 2.692,-2.634c3.406,-0.032 3.515,0.086 3.597,-0.152c0.116,-0.336 -0.261,-1.758 0.508,-2.659c0.25,-0.293 0.792,-0.698 1.372,-0.764c0.359,-0.041 4.798,-0.022 5.216,-0.02c0.454,0.002 1.433,-0.026 2.084,1.113c0.517,0.903 0.135,2.208 0.361,2.418c0.103,0.095 0.127,0.051 3.284,0.062c0.742,0.003 1.087,0.04 1.787,0.466c0.407,0.248 0.884,0.888 1.032,1.402c0.18,0.625 0.137,0.638 0.141,7.261c0.003,4.857 0.002,4.86 -0.089,5.204c-0.423,1.606 -1.69,1.907 -2.116,2.006Z" style="fill:#3b75aa;"/><path d="M3.795,20.876c-0.182,-0.006 -0.381,0.019 -0.767,-0.162c-0.888,-0.417 -0.926,-1.387 -0.932,-1.53c-0.003,-0.078 -0.036,-10.66 0.016,-11.08c0.063,-0.506 0.5,-1.33 1.555,-1.372c0.426,-0.017 12.178,-0.009 13.237,-0.008c3.657,0.003 3.656,0.025 3.828,0.068c0.654,0.161 1.151,0.762 1.179,1.441c0.013,0.327 0.024,10.9 -0.007,11.208c-0.042,0.417 -0.391,1.421 -1.69,1.434c-0.251,0.003 -15.784,-0.004 -16.421,0.002Z" style="fill:#fdfefe;"/><path d="M13.907,16.38c0.001,1.284 0.107,1.651 -0.321,1.891c-0.137,0.077 -0.147,0.066 -2.409,0.068c-0.74,0.001 -1.057,0.042 -1.065,-0.812c-0.005,-0.598 -0.006,-1.172 -0.006,-1.274c-0,-0.029 -0,-0.346 -0.009,-0.368c-0.088,-0.211 -0.444,-0.158 -0.702,-0.158c-1.569,-0.001 -1.665,0.045 -1.89,-0.251c-0.165,-0.217 -0.104,-0.619 -0.111,-2.533c-0.002,-0.635 -0.08,-1.116 0.983,-1.082c0.7,0.023 0.698,0.012 1.4,0.013c0.283,0 0.318,-0.048 0.33,-0.332c0.025,-0.626 -0.074,-1.746 0.087,-2.015c0.178,-0.298 0.307,-0.278 2.639,-0.275c0.578,0.001 1.052,-0.057 1.066,0.762c0.005,0.273 0.003,1.631 0.007,1.649c0.056,0.215 0.104,0.201 0.327,0.208c0.732,0.023 1.892,-0.086 2.129,0.1c0.32,0.252 0.254,0.34 0.266,2.499c0.005,0.87 0.043,1.245 -0.741,1.254c-1.573,0.018 -1.875,-0.049 -1.946,0.127c-0.016,0.039 -0.023,0.057 -0.034,0.528Z" style="fill:#3974aa;"/><path d="M12.797,16.509c0.005,0.379 0.032,0.582 -0.062,0.665c-0.067,0.059 -0.075,0.07 -1.176,0.069c-0.364,-0 -0.35,-0.116 -0.349,-0.48c0.005,-1.692 0.026,-1.978 -0.398,-2.1c-0.327,-0.094 -1.993,0.003 -2.171,-0.085c-0.114,-0.057 -0.127,-0.213 -0.129,-0.235c-0.002,-0.021 -0.015,-1.093 -0.006,-1.144c0.035,-0.204 0.227,-0.21 0.254,-0.211c0.807,-0.026 2.082,0.127 2.297,-0.164c0.212,-0.287 0.114,-0.325 0.149,-2.17c0.005,-0.29 0.187,-0.302 0.351,-0.303c1.065,-0.004 1.075,-0.011 1.145,0.049c0.115,0.097 0.104,0.121 0.099,1.526c-0.002,0.48 -0.083,1.043 0.664,1.066c0.467,0.014 1.819,-0.022 1.893,0.014c0.192,0.092 0.152,0.4 0.148,1.084c-0,0.03 -0.002,0.334 -0.016,0.378c-0.05,0.161 -0.172,0.149 -1.387,0.149c-0.641,0 -0.991,-0.062 -1.21,0.276c-0.126,0.195 -0.101,0.632 -0.097,1.616Z" style="fill:#f9fdfd;"/><path d="M8.415,4.415c0.001,-0.027 -0.01,-0.388 0.09,-0.636c0.234,-0.585 0.802,-0.639 0.889,-0.647c0.184,-0.018 5.168,-0.01 5.221,-0.005c0.081,0.007 0.578,0.05 0.857,0.543c0.065,0.114 0.17,0.301 0.134,1.635c-0.001,0.029 -0.007,0.241 -0.224,0.282c-0.075,0.014 -3.84,0.018 -6.242,0.015c-0.264,-0 -0.623,0.049 -0.716,-0.178c-0.012,-0.03 -0.009,-0.538 -0.009,-1.008Z" style="fill:#fbfefe;"/></g></svg>