<?xml version="1.0" encoding="UTF-8" standalone="no"?><!DOCTYPE svg PUBLIC "-//W3C//DTD SVG 1.1//EN" "http://www.w3.org/Graphics/SVG/1.1/DTD/svg11.dtd"><svg width="100%" height="100%" viewBox="0 0 24 24" version="1.1" xmlns="http://www.w3.org/2000/svg" xmlns:xlink="http://www.w3.org/1999/xlink" xml:space="preserve" xmlns:serif="http://www.serif.com/" style="fill-rule:evenodd;clip-rule:evenodd;stroke-linejoin:round;stroke-miterlimit:2;"><g id="thr"><path d="M17.846,7.929c0.013,0.144 0.013,0.252 0.058,0.272c0.029,0.013 0.03,0.012 1.08,0.013c0.531,0 0.878,-0.041 1.442,0.336c0.298,0.199 0.755,0.716 0.773,1.488c0.006,0.278 0.002,6.489 0.002,7.053c-0.002,2.517 0.011,2.519 -0.032,2.737c-0.105,0.539 -0.326,0.767 -0.43,0.903c-0.027,0.035 -0.236,0.253 -0.5,0.395c-0.05,0.027 -0.296,0.159 -0.672,0.214c-0.155,0.022 -6.186,0.009 -14.238,0.012c-0.738,0 -0.974,0.018 -1.35,-0.121c-0.326,-0.121 -0.577,-0.358 -0.584,-0.364c-0.044,-0.035 -0.145,-0.146 -0.235,-0.262c-0.255,-0.33 -0.322,-0.75 -0.333,-0.82c-0.041,-0.26 -0.017,-0.51 -0.022,-2.379c-0.001,-2.276 -0.003,-4.552 -0.004,-6.828c-0.001,-0.618 -0.014,-0.885 0.18,-1.309c0.207,-0.454 0.647,-0.855 1.178,-0.992c0.246,-0.063 0.249,-0.066 1.575,-0.064c0.33,0 0.39,0.027 0.405,-0.106c0.026,-0.236 0.083,-1.351 0.787,-2.528c0.149,-0.249 0.423,-0.758 1.15,-1.419c0.292,-0.265 0.791,-0.599 0.816,-0.614c0.737,-0.443 1.465,-0.778 2.727,-0.886c0.263,-0.022 1.159,-0.051 2.068,0.235c0.64,0.201 1.049,0.421 1.289,0.562c0.123,0.072 0.117,0.081 0.24,0.154c0.056,0.034 0.439,0.293 0.805,0.633c0.189,0.175 0.47,0.436 0.884,1.042c0.291,0.426 0.489,0.912 0.501,0.937c0.293,0.671 0.389,1.317 0.407,1.435c0.02,0.136 0.02,0.135 0.036,0.27Z" style="fill:#4193cc;"/><path d="M11.619,17.03c0.145,0.016 0.562,0.084 1.119,-0.08c0.086,-0.025 0.414,-0.122 0.997,-0.522c0.052,-0.035 0.803,-0.517 0.93,-0.604c0.057,-0.04 0.062,-0.032 0.734,-0.47c0.066,-0.043 0.151,-0.087 0.358,-0.228c0.163,-0.111 2.465,-1.58 2.548,-1.637c0.011,-0.008 0.655,-0.421 0.761,-0.498c0.002,-0.001 0.516,-0.325 0.63,-0.403c0.215,-0.148 0.387,-0.216 0.686,-0.522c0.05,-0.051 0.079,-0.101 0.112,-0.076c0.027,0.021 0.011,0.03 0.011,0.743c0.001,0.546 0.007,6.661 -0.004,6.828c-0.018,0.279 -0.09,0.575 -0.478,0.864c-0.195,0.145 -0.42,0.191 -0.459,0.199c-0.138,0.028 -0.14,0.015 -4.759,0.02c-3.324,0 -6.649,0 -9.973,0c-0.137,-0 -0.655,0.053 -1.053,-0.39c-0.325,-0.361 -0.284,-0.648 -0.285,-1.501c-0.003,-3.074 0.008,-6.38 -0.008,-6.693c-0,-0.007 -0.004,-0.085 0.043,-0.082c0.041,0.002 0.058,0.062 0.152,0.154c0.266,0.262 0.651,0.474 0.922,0.654c0.04,0.027 0.61,0.387 0.763,0.494c0.209,0.146 1.002,0.629 2.127,1.37c0.354,0.233 0.362,0.219 0.715,0.455c0.427,0.287 0.485,0.295 2.072,1.339c0.464,0.305 0.774,0.429 0.846,0.458c0.196,0.078 0.453,0.12 0.493,0.126Z" style="fill:#fefefe;"/><path d="M3.511,10.265c-0.02,-0.288 -0.003,-0.391 0.043,-0.547c0.144,-0.484 0.568,-0.763 0.965,-0.798c0.127,-0.011 1.521,-0.009 1.528,-0.009c0.108,0.008 0.097,0.163 0.099,0.183c0.058,0.614 0.136,0.664 0.078,0.718c-0.058,0.054 -0.787,-0.022 -0.938,0.054c-0.316,0.16 -0.258,0.627 0.131,0.667c0.086,0.009 12.644,-0.001 13.073,0.005c0.472,0.006 0.49,-0.413 0.346,-0.578c-0.157,-0.179 -0.384,-0.119 -0.976,-0.126c-0.117,-0.001 -0.117,-0.041 -0.094,-0.156c0.119,-0.602 0.068,-0.614 0.102,-0.715c0.02,-0.058 0.041,-0.054 0.532,-0.05c0.382,0.003 0.381,0.002 0.764,0.003c0.136,0 0.955,-0.097 1.27,0.759c0.148,0.403 0.077,1.11 -0.359,1.676c-0.162,0.211 -0.194,0.258 -0.453,0.452c-0.15,0.113 -1.441,0.935 -1.443,0.936c-0.349,0.22 -0.344,0.227 -0.375,0.246c-0.724,0.438 -1.299,0.839 -1.48,0.945c-0.284,0.165 -1.22,0.796 -1.918,1.236c-0.709,0.446 -1.108,0.724 -1.43,0.913c-0.056,0.033 -0.407,0.239 -0.775,0.262c-0.533,0.034 -0.801,-0.062 -1.126,-0.234c-0.121,-0.064 -2.379,-1.518 -2.571,-1.647c-0.166,-0.111 -0.17,-0.103 -0.337,-0.213c-1.039,-0.685 -2.026,-1.293 -2.735,-1.76c-0.594,-0.391 -0.597,-0.385 -0.649,-0.419c-0.206,-0.137 -0.614,-0.335 -0.899,-0.768c-0.257,-0.391 -0.347,-0.671 -0.374,-1.035Z" style="fill:#fefefe;"/><path d="M15.384,4.61c0.281,0.249 0.369,0.346 0.599,0.614c0.171,0.2 1.202,1.439 1.202,3.332c-0,0.091 -0,0.52 -0.125,1.125c-0.037,0.178 -0.096,0.15 -0.232,0.15c-0.037,0 -0.621,0.001 -0.631,0.001c-0.133,-0.006 -0.089,-0.098 -0.043,-0.287c0.102,-0.415 0.11,-0.784 0.111,-0.853c0.001,-0.026 0.044,-0.328 -0.208,-0.434c-0.05,-0.021 -0.354,-0.099 -0.457,0.249c-0.033,0.113 -0.037,0.322 -0.338,0.817c-0.071,0.116 -0.324,0.45 -0.412,0.487c-0.07,0.03 -0.265,0.021 -3.412,0.021c-0.52,-0 -0.53,0.005 -0.62,-0.072c-0.372,-0.321 -0.956,-1.148 -0.891,-2.281c0.024,-0.417 0.188,-0.924 0.355,-1.207c0.049,-0.084 0.372,-0.702 1.074,-1.07c0.608,-0.318 0.663,-0.199 0.841,-0.335c0.229,-0.175 0.156,-0.621 -0.22,-0.61c-1.649,0.046 -2.929,0.902 -3.656,2.134c-0.225,0.382 -0.525,1.003 -0.58,1.941c-0.048,0.824 0.155,1.377 0.151,1.439c-0.004,0.059 -0.084,0.062 -0.093,0.062c-0.068,0.002 -0.58,0 -0.631,-0c-0.067,-0 -0.15,0.016 -0.196,-0.053c-0.028,-0.042 -0.269,-1.033 -0.088,-2.079c0.069,-0.398 0.212,-1.069 0.751,-1.963c0.014,-0.024 0.017,-0.022 0.203,-0.283c0.062,-0.087 0.244,-0.312 0.321,-0.399c0.287,-0.326 0.625,-0.586 0.753,-0.687c0.112,-0.087 0.548,-0.377 0.773,-0.48c0.11,-0.05 0.108,-0.054 0.219,-0.103c1.493,-0.661 3.345,-0.608 4.826,0.346c0.054,0.035 0.401,0.259 0.653,0.479Z" style="fill:#fefefe;"/><path d="M13.311,8.563c-0.131,-0.291 -0.288,-0.82 -0.433,-0.91c-0.197,-0.122 -0.768,-0.329 -0.814,-0.349c-0.273,-0.113 -0.272,-0.436 -0.121,-0.578c0.124,-0.116 0.821,-0.318 0.972,-0.466c0.124,-0.121 0.345,-0.738 0.4,-0.853c0.134,-0.278 0.436,-0.264 0.579,-0.075c0.068,0.09 0.325,0.814 0.427,0.925c0.102,0.111 0.683,0.307 0.892,0.408c0.117,0.057 0.217,0.197 0.194,0.366c-0.04,0.288 -0.356,0.292 -0.924,0.56c-0.161,0.076 -0.187,0.068 -0.314,0.377c-0.148,0.36 -0.218,0.554 -0.261,0.632c-0.094,0.169 -0.304,0.199 -0.444,0.125c-0.101,-0.053 -0.091,-0.067 -0.153,-0.163Z" style="fill:#4193cc;"/><path d="M9.386,8.731c0.123,0.369 0.162,0.438 0.343,0.769c0.038,0.069 0.179,0.257 0.18,0.269c0.001,0.006 0.006,0.046 -0.037,0.06c-0.012,0.004 -0.102,0.001 -0.636,0.003c-0.5,0.001 -0.501,0.004 -0.542,-0.01c-0.067,-0.022 -0.109,-0.163 -0.18,-0.456c-0.205,-0.841 0.006,-1.619 0.043,-1.754c0.235,-0.864 0.683,-1.385 1.118,-1.814c0.007,-0.007 0.079,-0.078 0.101,-0.079c0.056,-0.003 0.04,0.047 0.039,0.052c-0.03,0.096 -0.172,0.112 -0.376,0.713c-0.04,0.117 -0.41,1.032 -0.052,2.249Z" style="fill:#fcfefe;"/><path d="M13.155,6.846c0.297,-0.185 0.301,-0.278 0.393,-0.441c0.034,-0.059 0.03,-0.078 0.097,-0.071c0.067,0.007 0.046,0.036 0.081,0.104c0.268,0.518 0.598,0.399 0.58,0.552c-0.006,0.053 -0.06,0.036 -0.304,0.175c-0.265,0.151 -0.294,0.577 -0.422,0.428c-0.115,-0.134 -0.095,-0.275 -0.347,-0.433c-0.209,-0.131 -0.219,-0.115 -0.234,-0.125c-0.007,-0.005 -0.072,-0.047 -0.05,-0.092c0.008,-0.016 0.012,-0.012 0.206,-0.097Z" style="fill:#fafefd;"/></g></svg>